# xmcd
#
# Track frame offsets:
#   150
#   17134
#   33399
#   48696
#   62111
#   75427
#   91349
#   106782
#   123019
#   139242
#   161055
#   174542
#   186398
#   201120
#
# Disc length: 2921 seconds
#
# Revision: 0
# Processed by: cddbd v1.5.1PL0 Copyright (c) Steve Scherf et al.
# Submitted via: uFREEDB ActiveX Control 1.5
#
DISCID=ba0b670e
DTITLE=Roberta Miranda - Acústico
DYEAR=1900
DGENRE=Country
TTITLE0=Majestade o Sabia
TTITLE1=Que Vá a Luta
TTITLE2=O pior Já Pasosu
TTITLE3=De Igual pra igual
TTITLE4=Foi você quem quiz
TTITLE5=Vamos falar de nós
TTITLE6=Eu quero sempre Mais
TTITLE7=Ideal pra mim
TTITLE8=Lembranças
TTITLE9=Sem lado esquerdo
TTITLE10=Mais uma Vez
TTITLE11=Peão do mundo inteiro
TTITLE12=Meus Momentos
TTITLE13=Vá com Deus
EXTD=
EXTT0=
EXTT1=
EXTT2=
EXTT3=
EXTT4=
EXTT5=
EXTT6=
EXTT7=
EXTT8=
EXTT9=
EXTT10=
EXTT11=
EXTT12=
EXTT13=
PLAYORDER=
